<svg width="24" height="24" viewBox="0 0 24 24" fill="none" xmlns="http://www.w3.org/2000/svg">
<path fill-rule="evenodd" clip-rule="evenodd" d="M7.90587 2.75C6.9665 2.75 6.15475 3.36002 5.90297 4.22441L4.56854 8.8056C4.60051 8.80197 4.63261 8.79876 4.66485 8.79598C9.76024 8.35634 14.2736 8.37091 19.326 8.80032C19.3619 8.80337 19.3975 8.80694 19.433 8.81103L18.097 4.22441C17.8452 3.36002 17.0335 2.75 16.0941 2.75H12.75V4.02778H13.6991C14.1134 4.02778 14.4491 4.36356 14.4491 4.77778C14.4491 5.19199 14.1134 5.52778 13.6991 5.52778H10.3008C9.88661 5.52778 9.55083 5.19199 9.55083 4.77778C9.55083 4.36356 9.88661 4.02778 10.3008 4.02778H11.25V2.75H7.90587ZM7.90587 1.25C6.31643 1.25 4.90576 2.2843 4.46282 3.80492L2.79438 9.53278C2.03613 10.1287 1.53446 11.0284 1.46555 12.0422L1.25811 15.0943C1.14792 16.7157 2.15925 18.1249 3.60377 18.6446V20.0556C3.60377 21.5572 4.8408 22.75 6.33612 22.75C7.83144 22.75 9.06847 21.5572 9.06847 20.0556V18.8577H14.9315V20.0556C14.9315 21.5572 16.1685 22.75 17.6638 22.75C19.1592 22.75 20.3962 21.5572 20.3962 20.0556V18.6446C21.8407 18.1249 22.8521 16.7157 22.7419 15.0943L22.5349 12.0498C22.466 11.0363 21.965 10.1377 21.2081 9.5415L19.5371 3.80492C19.0942 2.2843 17.6835 1.25 16.0941 1.25H7.90587ZM18.8962 18.8577H16.4315V20.0556C16.4315 20.7016 16.9695 21.25 17.6638 21.25C18.3582 21.25 18.8962 20.7016 18.8962 20.0556V18.8577ZM7.56847 18.8577H5.10377V20.0556C5.10377 20.7016 5.6418 21.25 6.33612 21.25C7.03045 21.25 7.56847 20.7016 7.56847 20.0556V18.8577ZM19.199 10.2949C14.2284 9.87248 9.8008 9.85841 4.7938 10.2904C3.79644 10.3765 3.02824 11.1709 2.9621 12.1439L2.75466 15.1961C2.67615 16.3511 3.61297 17.3577 4.83205 17.3577H19.1679C20.387 17.3577 21.3238 16.3511 21.2453 15.1961L21.0384 12.1515C20.9721 11.1763 20.2004 10.38 19.199 10.2949ZM9.55083 13.9444C9.55083 13.5302 9.88661 13.1944 10.3008 13.1944H13.6991C14.1134 13.1944 14.4491 13.5302 14.4491 13.9444C14.4491 14.3587 14.1134 14.6944 13.6991 14.6944H10.3008C9.88661 14.6944 9.55083 14.3587 9.55083 13.9444Z" fill="#d1e3f8"/>
<path fill-rule="evenodd" clip-rule="evenodd" d="M5 14C5 13.4477 5.44772 13 6 13H6.012C6.56428 13 7.012 13.4477 7.012 14C7.012 14.5523 6.56428 15 6.012 15H6C5.44772 15 5 14.5523 5 14ZM16.988 14C16.988 13.4477 17.4357 13 17.988 13H18C18.5523 13 19 13.4477 19 14C19 14.5523 18.5523 15 18 15H17.988C17.4357 15 16.988 14.5523 16.988 14Z" fill="#d1e3f8"/>
</svg>
