<svg width="24" height="24" viewBox="0 0 24 24" fill="none" xmlns="http://www.w3.org/2000/svg">
<path fill-rule="evenodd" clip-rule="evenodd" d="M1.25 7C1.25 4.92893 2.92893 3.25 5 3.25H19C21.0711 3.25 22.75 4.92893 22.75 7V17C22.75 19.0711 21.0711 20.75 19 20.75H5C2.92893 20.75 1.25 19.0711 1.25 17V7ZM5 4.75C3.75736 4.75 2.75 5.75736 2.75 7V8.25H21.25V7C21.25 5.75736 20.2426 4.75 19 4.75H5ZM21.25 9.75H2.75V17C2.75 18.2426 3.75736 19.25 5 19.25H19C20.2426 19.25 21.25 18.2426 21.25 17V9.75ZM4.75 16.5C4.75 16.0858 5.08579 15.75 5.5 15.75H8C8.41421 15.75 8.75 16.0858 8.75 16.5C8.75 16.9142 8.41421 17.25 8 17.25H5.5C5.08579 17.25 4.75 16.9142 4.75 16.5ZM10.25 16.5C10.25 16.0858 10.5858 15.75 11 15.75H16C16.4142 15.75 16.75 16.0858 16.75 16.5C16.75 16.9142 16.4142 17.25 16 17.25H11C10.5858 17.25 10.25 16.9142 10.25 16.5Z" fill="#d1e3f8"/>
</svg>
