<svg width="24" height="24" viewBox="0 0 24 24" fill="none" xmlns="http://www.w3.org/2000/svg">
<path fill-rule="evenodd" clip-rule="evenodd" d="M6.77666 1.75L11.5 1.75C13.3142 1.75 14.8275 3.03832 15.175 4.75H16.2321C17.0449 4.74999 17.7006 4.74999 18.2315 4.79336C18.7781 4.83803 19.2582 4.93239 19.7025 5.15873C20.4081 5.51825 20.9817 6.09193 21.3413 6.79754C21.5676 7.24175 21.662 7.7219 21.7066 8.26853C21.75 8.79944 21.75 9.45505 21.75 10.2679V10.919C21.7648 10.926 21.7797 10.9332 21.7945 10.9407C22.1238 11.1085 22.3915 11.3762 22.5593 11.7055C22.6766 11.9358 22.7165 12.169 22.7339 12.3821C22.75 12.5798 22.75 12.8163 22.75 13.0738V13.9262C22.75 14.1837 22.75 14.4202 22.7339 14.6179C22.7165 14.831 22.6766 15.0642 22.5593 15.2945C22.3915 15.6238 22.1238 15.8915 21.7945 16.0593C21.7797 16.0668 21.7648 16.074 21.75 16.081V16.7321C21.75 17.545 21.75 18.2006 21.7066 18.7315C21.662 19.2781 21.5676 19.7582 21.3413 20.2025C20.9817 20.9081 20.4081 21.4817 19.7025 21.8413C19.2582 22.0676 18.7781 22.162 18.2315 22.2066C17.7006 22.25 17.045 22.25 16.2321 22.25H6.76788C5.95505 22.25 5.29944 22.25 4.76853 22.2066C4.2219 22.162 3.74175 22.0676 3.29754 21.8413C2.59193 21.4817 2.01825 20.9081 1.65873 20.2025C1.43239 19.7582 1.33803 19.2781 1.29336 18.7315C1.24999 18.2006 1.24999 17.5449 1.25 16.7321L1.25 10.2927C1.25 9.7996 1.25 9.36755 1.25877 8.99119L1.25877 7.2679C1.25876 6.45506 1.25875 5.79944 1.30213 5.26853C1.34679 4.7219 1.44115 4.24175 1.66749 3.79754C2.02702 3.09193 2.60069 2.51825 3.3063 2.15873C3.75052 1.93239 4.23066 1.83803 4.7773 1.79336C5.30821 1.74999 5.96382 1.74999 6.77666 1.75ZM2.79115 5.46957C2.95071 5.35327 3.11995 5.24921 3.29754 5.15873C3.74175 4.93239 4.2219 4.83803 4.76853 4.79336C5.29944 4.74999 5.95506 4.74999 6.7679 4.75H13.622C13.3131 3.87611 12.4797 3.25 11.5 3.25H6.80877C5.95631 3.25 5.36208 3.25058 4.89945 3.28838C4.44557 3.32547 4.1848 3.3946 3.98729 3.49524C3.56392 3.71095 3.21972 4.05516 3.004 4.47852C2.90336 4.67604 2.83423 4.9368 2.79715 5.39068C2.79503 5.41656 2.79304 5.44285 2.79115 5.46957ZM20.25 16.25H18.5C16.9812 16.25 15.75 15.0188 15.75 13.5C15.75 11.9812 16.9812 10.75 18.5 10.75H20.25V10.3C20.25 9.44755 20.2494 8.85331 20.2116 8.39068C20.1745 7.9368 20.1054 7.67604 20.0048 7.47852C19.789 7.05516 19.4448 6.71095 19.0215 6.49524C18.824 6.3946 18.5632 6.32547 18.1093 6.28838C17.6467 6.25058 17.0525 6.25 16.2 6.25H6.8C5.94755 6.25 5.35331 6.25058 4.89068 6.28838C4.4368 6.32547 4.17604 6.3946 3.97852 6.49524C3.55516 6.71095 3.21095 7.05516 2.99524 7.47852C2.8502 7.76316 2.77897 8.15693 2.75856 9.01778C2.75004 9.37657 2.75 9.79436 2.75 10.3V16.7C2.75 17.5525 2.75058 18.1467 2.78838 18.6093C2.82547 19.0632 2.8946 19.324 2.99524 19.5215C3.21095 19.9448 3.55516 20.289 3.97852 20.5048C4.17604 20.6054 4.4368 20.6745 4.89068 20.7116C5.35331 20.7494 5.94755 20.75 6.8 20.75H16.2C17.0525 20.75 17.6467 20.7494 18.1093 20.7116C18.5632 20.6745 18.824 20.6054 19.0215 20.5048C19.4448 20.289 19.789 19.9448 20.0048 19.5215C20.1054 19.324 20.1745 19.0632 20.2116 18.6093C20.2494 18.1467 20.25 17.5525 20.25 16.7V16.25ZM5.25 9.5C5.25 9.08579 5.58579 8.75 6 8.75H12C12.4142 8.75 12.75 9.08579 12.75 9.5C12.75 9.91421 12.4142 10.25 12 10.25H6C5.58579 10.25 5.25 9.91421 5.25 9.5ZM20.9543 12.2582C20.8252 12.2503 20.6579 12.25 20.4 12.25H18.5C17.8096 12.25 17.25 12.8096 17.25 13.5C17.25 14.1904 17.8096 14.75 18.5 14.75H20.4C20.6579 14.75 20.8252 14.7497 20.9543 14.7418C21.0643 14.7351 21.1066 14.7243 21.1164 14.7212C21.1611 14.6977 21.1976 14.6612 21.2212 14.6165C21.2239 14.6077 21.2324 14.5745 21.2389 14.4957C21.2494 14.3666 21.25 14.1924 21.25 13.9V13.1C21.25 12.8076 21.2494 12.6334 21.2389 12.5043C21.2324 12.4255 21.2239 12.3923 21.2212 12.3835C21.1976 12.3388 21.1611 12.3023 21.1164 12.2788C21.1066 12.2757 21.0643 12.2649 20.9543 12.2582ZM21.2203 12.3809C21.2203 12.3808 21.2205 12.3813 21.2208 12.3824ZM21.2203 14.6191C21.2203 14.6191 21.2205 14.6185 21.2208 14.6176Z" fill="#d1e3f8"/>
</svg>
