<svg width="24" height="24" viewBox="0 0 24 24" fill="none" xmlns="http://www.w3.org/2000/svg">
<path fill-rule="evenodd" clip-rule="evenodd" d="M11.7679 1.25H12.2321C13.0449 1.24999 13.7006 1.24999 14.2315 1.29336C14.7781 1.33803 15.2582 1.43239 15.7025 1.65873C16.4081 2.01825 16.9817 2.59193 17.3413 3.29754C17.4929 3.59514 17.5856 3.90968 17.6436 4.25023C18.2701 4.25131 18.7932 4.25756 19.2315 4.29336C19.7781 4.33803 20.2582 4.43239 20.7025 4.65873C21.4081 5.01825 21.9817 5.59193 22.3413 6.29754C22.5676 6.74175 22.662 7.2219 22.7066 7.76853C22.75 8.29944 22.75 8.95505 22.75 9.76788V17.2321C22.75 18.045 22.75 18.7006 22.7066 19.2315C22.662 19.7781 22.5676 20.2582 22.3413 20.7025C21.9817 21.4081 21.4081 21.9817 20.7025 22.3413C20.2582 22.5676 19.7781 22.662 19.2315 22.7066C18.7006 22.75 18.045 22.75 17.2321 22.75H6.76788C5.95505 22.75 5.29944 22.75 4.76853 22.7066C4.2219 22.662 3.74175 22.5676 3.29754 22.3413C2.59193 21.9817 2.01825 21.4081 1.65873 20.7025C1.43239 20.2582 1.33803 19.7781 1.29336 19.2315C1.24999 18.7006 1.24999 18.0449 1.25 17.2321V9.76789C1.24999 8.95506 1.24999 8.29944 1.29336 7.76853C1.33803 7.2219 1.43239 6.74175 1.65873 6.29754C2.01825 5.59193 2.59193 5.01825 3.29754 4.65873C3.74175 4.43239 4.2219 4.33803 4.76853 4.29336C5.20675 4.25756 5.72994 4.25131 6.35638 4.25023C6.41441 3.90968 6.50709 3.59514 6.65873 3.29754C7.01825 2.59193 7.59193 2.01825 8.29754 1.65873C8.74175 1.43239 9.2219 1.33803 9.76853 1.29336C10.2994 1.24999 10.9551 1.24999 11.7679 1.25ZM7.89078 4.25H16.1092C16.0794 4.14459 16.0446 4.05677 16.0048 3.97852C15.789 3.55516 15.4448 3.21095 15.0215 2.99524C14.824 2.8946 14.5632 2.82547 14.1093 2.78838C13.6467 2.75058 13.0525 2.75 12.2 2.75H11.8C10.9475 2.75 10.3533 2.75058 9.89068 2.78838C9.4368 2.82547 9.17604 2.8946 8.97852 2.99524C8.55516 3.21095 8.21095 3.55516 7.99524 3.97852C7.95537 4.05677 7.92058 4.14459 7.89078 4.25ZM4.89068 5.78838C4.4368 5.82546 4.17604 5.8946 3.97852 5.99524C3.55516 6.21095 3.21095 6.55516 2.99524 6.97852C2.8946 7.17604 2.82547 7.4368 2.78838 7.89068C2.75805 8.2619 2.75168 8.71785 2.75035 9.32396L10.2773 12.8616C11.0646 13.2316 11.3358 13.3524 11.6066 13.4005C11.8668 13.4467 12.1332 13.4467 12.3934 13.4005C12.6642 13.3524 12.9354 13.2316 13.7227 12.8616L21.2496 9.32396C21.2483 8.71785 21.2419 8.2619 21.2116 7.89068C21.1745 7.4368 21.1054 7.17604 21.0048 6.97852C20.789 6.55516 20.4448 6.21095 20.0215 5.99524C19.824 5.8946 19.5632 5.82546 19.1093 5.78838C18.6467 5.75058 18.0525 5.75 17.2 5.75H6.8C5.94755 5.75 5.35331 5.75058 4.89068 5.78838ZM21.25 10.9812L14.3608 14.2192C14.3311 14.2331 14.3018 14.2469 14.2729 14.2605C13.6073 14.5736 13.1468 14.7902 12.6557 14.8774C12.2219 14.9544 11.7781 14.9544 11.3443 14.8774C10.8532 14.7902 10.3927 14.5736 9.72712 14.2605C9.69822 14.2469 9.66894 14.2331 9.63925 14.2192L2.75 10.9812V17.2C2.75 18.0525 2.75058 18.6467 2.78838 19.1093C2.82547 19.5632 2.8946 19.824 2.99524 20.0215C3.21095 20.4448 3.55516 20.789 3.97852 21.0048C4.17604 21.1054 4.4368 21.1745 4.89068 21.2116C5.35331 21.2494 5.94755 21.25 6.8 21.25H17.2C18.0525 21.25 18.6467 21.2494 19.1093 21.2116C19.5632 21.1745 19.824 21.1054 20.0215 21.0048C20.4448 20.789 20.789 20.4448 21.0048 20.0215C21.1054 19.824 21.1745 19.5632 21.2116 19.1093C21.2494 18.6467 21.25 18.0525 21.25 17.2V10.9812ZM10.25 10C10.25 9.58579 10.5858 9.25 11 9.25H13C13.4142 9.25 13.75 9.58579 13.75 10C13.75 10.4142 13.4142 10.75 13 10.75H11C10.5858 10.75 10.25 10.4142 10.25 10Z" fill="#d1e3f8"/>
</svg>
