<svg width="24" height="24" viewBox="0 0 24 24" fill="none" xmlns="http://www.w3.org/2000/svg">
<path fill-rule="evenodd" clip-rule="evenodd" d="M12.3779 3.46125C12.4063 3.87449 12.0943 4.23252 11.6811 4.26093C9.77853 4.39175 8.13765 5.68627 7.58018 7.53195L6.03189 13.7281L6.01455 13.7726C5.84601 14.2046 5.57742 14.5905 5.23081 14.8986L5.09277 15.0213C4.87474 15.2151 4.75 15.4929 4.75 15.7846C4.75 16.3486 5.20723 16.8059 5.77126 16.8059H18.2287C18.7928 16.8059 19.25 16.3486 19.25 15.7846C19.25 15.4929 19.1253 15.2151 18.9072 15.0213L18.7692 14.8986C18.4226 14.5905 18.154 14.2046 17.9854 13.7726L17.9681 13.7281L17.1772 10.563C17.0768 10.1612 17.3212 9.754 17.723 9.65358C18.1249 9.55317 18.5321 9.79753 18.6325 10.1994L19.399 13.267C19.4819 13.4621 19.6071 13.6365 19.7657 13.7775L19.9038 13.9002C20.442 14.3787 20.75 15.0644 20.75 15.7846C20.75 17.1771 19.6212 18.3059 18.2287 18.3059H5.77126C4.3788 18.3059 3.25 17.1771 3.25 15.7846C3.25 15.0644 3.55797 14.3787 4.09622 13.9002L4.23426 13.7775C4.39292 13.6365 4.51812 13.4621 4.601 13.267L6.13326 7.13497L6.13808 7.1188C6.87072 4.66225 9.04975 2.93832 11.5782 2.76447C11.9914 2.73605 12.3494 3.04802 12.3779 3.46125ZM8.69827 19.3849C9.038 19.1479 9.50551 19.2312 9.74248 19.5709C10.2407 20.2852 11.0661 20.75 12 20.75C12.9339 20.75 13.7593 20.2852 14.2575 19.5709C14.4945 19.2312 14.962 19.1479 15.3017 19.3849C15.6415 19.6218 15.7248 20.0893 15.4878 20.4291C14.7211 21.5283 13.4449 22.25 12 22.25C10.5551 22.25 9.27893 21.5283 8.51221 20.4291C8.27523 20.0893 8.35854 19.6218 8.69827 19.3849Z" fill="#d1e3f8"/>
<path fill-rule="evenodd" clip-rule="evenodd" d="M16.5 3.75C15.5335 3.75 14.75 4.5335 14.75 5.5C14.75 6.4665 15.5335 7.25 16.5 7.25C17.4665 7.25 18.25 6.4665 18.25 5.5C18.25 4.5335 17.4665 3.75 16.5 3.75ZM13.25 5.5C13.25 3.70507 14.7051 2.25 16.5 2.25C18.2949 2.25 19.75 3.70507 19.75 5.5C19.75 7.29493 18.2949 8.75 16.5 8.75C14.7051 8.75 13.25 7.29493 13.25 5.5Z" fill="#d1e3f8"/>
</svg>
