<svg width="24" height="24" viewBox="0 0 24 24" fill="none" xmlns="http://www.w3.org/2000/svg">
<path fill-rule="evenodd" clip-rule="evenodd" d="M12.7703 2.9844C12.3036 2.67187 11.6964 2.67187 11.2297 2.9844L10.8164 2.36721L11.2297 2.9844L4.34751 7.59377L3.93015 6.97062L4.34751 7.59377C3.60672 8.08991 3.18879 8.9506 3.2573 9.84539L3.95548 18.9637C4.05449 20.2568 5.12653 21.25 6.4098 21.25H17.5902C18.8735 21.25 19.9455 20.2568 20.0445 18.9637L20.7427 9.84539C20.8112 8.9506 20.3933 8.08991 19.6525 7.59377L12.7703 2.9844ZM10.395 1.73811C11.3667 1.0873 12.6333 1.0873 13.605 1.7381L20.4872 6.34747C21.6794 7.14597 22.348 8.52764 22.2383 9.95991L21.5401 19.0783C21.3817 21.1472 19.6633 22.75 17.5902 22.75H6.4098C4.33673 22.75 2.61828 21.1472 2.45986 19.0783L1.76168 9.95991C1.65201 8.52763 2.32057 7.14597 3.5128 6.34747L10.395 1.73811ZM8.57368 17.6981C8.57368 17.2839 8.90947 16.9481 9.32368 16.9481H14.6763C15.0905 16.9481 15.4263 17.2839 15.4263 17.6981C15.4263 18.1123 15.0905 18.4481 14.6763 18.4481H9.32368C8.90947 18.4481 8.57368 18.1123 8.57368 17.6981Z" fill="#282930"/>
</svg>
