<svg width="24" height="24" viewBox="0 0 24 24" fill="none" xmlns="http://www.w3.org/2000/svg">
<path fill-rule="evenodd" clip-rule="evenodd" d="M15.2047 1.93281C15.2418 1.52027 15.6064 1.21593 16.0189 1.25307L15.9517 2.00005C16.0189 1.25307 16.0186 1.25304 16.0189 1.25307L16.0215 1.25331L16.0249 1.25363L16.034 1.25453L16.0612 1.2575C16.0833 1.26003 16.1132 1.26375 16.1502 1.26901C16.2243 1.27951 16.327 1.29618 16.4532 1.32187C16.7049 1.37313 17.0526 1.46093 17.4514 1.60889C18.2464 1.90382 19.2682 2.44679 20.127 3.43774C20.9849 4.42768 21.3872 5.52679 21.5767 6.36363C21.6719 6.78393 21.7151 7.14519 21.7346 7.40488C21.7443 7.535 21.7481 7.64041 21.7494 7.71592C21.7501 7.7537 21.7501 7.78408 21.7499 7.8064L21.7495 7.83379L21.7493 7.84282L21.7492 7.84615L21.7492 7.84751C21.7492 7.84779 21.7491 7.84866 21.0364 7.82607L21.7491 7.84867C21.736 8.26268 21.3898 8.58765 20.9758 8.57452C20.5626 8.56142 20.2382 8.21661 20.2498 7.80378C20.2498 7.80353 20.2498 7.80404 20.2498 7.80378C20.2498 7.80369 20.2499 7.80283 20.2499 7.80274C20.2499 7.80237 20.2499 7.802 20.2499 7.80163L20.2499 7.79412C20.25 7.78401 20.2501 7.76636 20.2496 7.74178C20.2488 7.69258 20.2462 7.61594 20.2387 7.51673C20.2239 7.31777 20.1899 7.03123 20.1138 6.69501C19.9606 6.01881 19.6432 5.16992 18.9934 4.42009C18.3445 3.67127 17.562 3.2498 16.9297 3.01524C16.6149 2.89846 16.3431 2.83025 16.1538 2.79169C16.0594 2.77246 15.9863 2.76077 15.9395 2.75413C15.9162 2.75082 15.8995 2.74878 15.89 2.7477L15.8815 2.74676C15.4704 2.70817 15.1676 2.34438 15.2047 1.93281ZM20.2499 7.80163C20.2499 7.80138 20.2499 7.80113 20.9995 7.8249L20.2499 7.80163C20.2499 7.80146 20.2499 7.8018 20.2499 7.80163ZM15.0017 4.44028C15.0641 4.0308 15.4467 3.74946 15.8562 3.81189L15.7431 4.55327C15.8562 3.81189 15.8559 3.81185 15.8562 3.81189L15.8573 3.81206L15.8584 3.81224L15.8611 3.81266L15.8677 3.81372L15.8858 3.8168C15.9 3.8193 15.9184 3.82272 15.9408 3.82721C15.9853 3.83619 16.0456 3.84951 16.1186 3.86847C16.2641 3.90627 16.463 3.96717 16.6904 4.06211C17.1419 4.2506 17.7302 4.58348 18.2289 5.15896C18.7269 5.73358 18.9775 6.36782 19.105 6.8439C19.1693 7.08413 19.2042 7.29132 19.2232 7.44183C19.2327 7.51732 19.2383 7.57924 19.2416 7.62476C19.2433 7.64753 19.2444 7.66627 19.2451 7.6806L19.2459 7.69879L19.2461 7.70534L19.2462 7.70797L19.2462 7.70912C19.2462 7.70938 19.2462 7.71017 18.4965 7.73052L19.2462 7.71017C19.2575 8.12423 18.9309 8.469 18.5169 8.48024C18.1043 8.49144 17.7605 8.16723 17.7469 7.75524C17.7469 7.75524 17.7469 7.75525 17.7469 7.75524C17.7469 7.75496 17.7469 7.75456 17.7469 7.75406C17.7467 7.75105 17.7463 7.74409 17.7456 7.73351C17.744 7.71231 17.7409 7.67687 17.735 7.62972C17.723 7.53495 17.6999 7.39579 17.656 7.23177C17.567 6.89934 17.4005 6.49339 17.0954 6.14132C16.791 5.79012 16.4198 5.5746 16.1126 5.44634C15.9606 5.38292 15.8303 5.34336 15.7415 5.3203C15.6974 5.30883 15.6642 5.30163 15.6446 5.29768C15.6348 5.29571 15.6285 5.29456 15.6259 5.29412L15.6283 5.29447M15.6259 5.29412C15.6257 5.29408 15.6261 5.29415 15.6259 5.29412ZM7.17308 8.29383C6.61624 8.29383 6.12444 8.66437 5.97036 9.20545L5.10978 12.2277C8.54331 11.9375 11.618 11.9472 15.0234 12.2318L14.1616 9.20545C14.0075 8.66437 13.5157 8.29383 12.9589 8.29383H7.17308ZM16.7675 12.8799L15.6043 8.79465C15.2674 7.61182 14.1889 6.79383 12.9589 6.79383H7.17308C5.94308 6.79383 4.86452 7.61183 4.52771 8.79466L3.36626 12.8735C2.8136 13.3416 2.45337 14.0275 2.40275 14.7895L2.25617 16.9956C2.17625 18.1984 2.87672 19.2653 3.91318 19.713V20.5946C3.91318 21.7826 4.87371 22.75 6.06391 22.75C7.25411 22.75 8.21463 21.7826 8.21463 20.5946V19.9367H11.9173V20.5946C11.9173 21.7826 12.8779 22.75 14.0681 22.75C15.2583 22.75 16.2188 21.7826 16.2188 20.5946V19.713C17.2552 19.2653 17.9557 18.1984 17.8758 16.9956L17.7296 14.795C17.679 14.0332 17.3191 13.3481 16.7675 12.8799ZM14.7188 19.9367H13.4173V20.5946C13.4173 20.959 13.7111 21.25 14.0681 21.25C14.4251 21.25 14.7188 20.959 14.7188 20.5946V19.9367ZM6.71463 19.9367H5.41318V20.5946C5.41318 20.959 5.7069 21.25 6.06391 21.25C6.42091 21.25 6.71463 20.959 6.71463 20.5946V19.9367ZM15.1327 13.7465C11.6335 13.4423 8.51846 13.4322 4.99448 13.7432C4.41019 13.7948 3.94023 14.2751 3.89945 14.8889L3.75287 17.095C3.70445 17.8237 4.28 18.4367 5.00113 18.4367H15.1308C15.852 18.4367 16.4275 17.8237 16.3791 17.095L16.2329 14.8944C16.192 14.2793 15.7199 13.7976 15.1327 13.7465ZM5.31391 16.1774C5.31391 15.7632 5.64969 15.4274 6.06391 15.4274H6.07191C6.48612 15.4274 6.82191 15.7632 6.82191 16.1774C6.82191 16.5916 6.48612 16.9274 6.07191 16.9274H6.06391C5.64969 16.9274 5.31391 16.5916 5.31391 16.1774ZM8.11536 16.1774C8.11536 15.7632 8.45115 15.4274 8.86536 15.4274H11.2666C11.6808 15.4274 12.0166 15.7632 12.0166 16.1774C12.0166 16.5916 11.6808 16.9274 11.2666 16.9274H8.86536C8.45115 16.9274 8.11536 16.5916 8.11536 16.1774ZM13.3101 16.1774C13.3101 15.7632 13.6458 15.4274 14.0601 15.4274H14.0681C14.4823 15.4274 14.8181 15.7632 14.8181 16.1774C14.8181 16.5916 14.4823 16.9274 14.0681 16.9274H14.0601C13.6458 16.9274 13.3101 16.5916 13.3101 16.1774Z" fill="#282930"/>
</svg>
