<svg width="24" height="24" viewBox="0 0 24 24" fill="none" xmlns="http://www.w3.org/2000/svg">
<path fill-rule="evenodd" clip-rule="evenodd" d="M6.75 5C6.75 2.92893 8.42893 1.25 10.5 1.25H17.5C19.5711 1.25 21.25 2.92893 21.25 5V19C21.25 21.0711 19.5711 22.75 17.5 22.75H10.5C8.42893 22.75 6.75 21.0711 6.75 19V18C6.75 17.5858 7.08579 17.25 7.5 17.25C7.91421 17.25 8.25 17.5858 8.25 18V19C8.25 20.2426 9.25736 21.25 10.5 21.25H17.5C18.7426 21.25 19.75 20.2426 19.75 19V5C19.75 3.75736 18.7426 2.75 17.5 2.75H10.5C9.25736 2.75 8.25 3.75736 8.25 5V6C8.25 6.41421 7.91421 6.75 7.5 6.75C7.08579 6.75 6.75 6.41421 6.75 6V5ZM11.9697 7.46967C12.2626 7.17678 12.7374 7.17678 13.0303 7.46967L16.8889 11.3282C17.0743 11.5136 17.1672 11.758 17.1672 12C17.1672 12.242 17.0743 12.4864 16.8889 12.6718L13.0303 16.5303C12.7374 16.8232 12.2626 16.8232 11.9697 16.5303C11.6768 16.2374 11.6768 15.7626 11.9697 15.4697L14.6893 12.75H3.5C3.08579 12.75 2.75 12.4142 2.75 12C2.75 11.5858 3.08579 11.25 3.5 11.25H14.6893L11.9697 8.53033C11.6768 8.23744 11.6768 7.76256 11.9697 7.46967Z" fill="#3a84e3"/>
</svg>
