<svg width="24" height="24" viewBox="0 0 24 24" fill="none" xmlns="http://www.w3.org/2000/svg">
<path d="M4.63803 21.6646L4.29066 22.3293L4.29066 22.3293L4.63803 21.6646ZM3.32698 20.32L3.99866 19.9863L3.99866 19.9863L3.32698 20.32ZM19.362 21.6646L19.0146 20.9999L19.0146 20.9999L19.362 21.6646ZM20.673 20.32L20.0013 19.9863L20.0013 19.9863L20.673 20.32ZM19.362 3.87383L19.0146 4.53853L19.0146 4.53853L19.362 3.87383ZM20.673 5.21849L21.3447 4.88481L21.3447 4.88481L20.673 5.21849ZM4.63803 3.87383L4.9854 4.53853L4.9854 4.53853L4.63803 3.87383ZM3.32698 5.21849L3.99866 5.55217L3.99866 5.55217L3.32698 5.21849ZM8.75 2C8.75 1.58579 8.41421 1.25 8 1.25C7.58579 1.25 7.25 1.58579 7.25 2H8.75ZM7.25 5.07692C7.25 5.49114 7.58579 5.82692 8 5.82692C8.41421 5.82692 8.75 5.49114 8.75 5.07692H7.25ZM16.75 2C16.75 1.58579 16.4142 1.25 16 1.25C15.5858 1.25 15.25 1.58579 15.25 2H16.75ZM15.25 5.07692C15.25 5.49114 15.5858 5.82692 16 5.82692C16.4142 5.82692 16.75 5.49114 16.75 5.07692H15.25ZM7.8 4.28846H16.2V2.78846H7.8V4.28846ZM16.2 21.25H7.8V22.75H16.2V21.25ZM3.75 17.0769V8.66667H2.25V17.0769H3.75ZM3.75 8.66667V8.46154H2.25V8.66667H3.75ZM20.25 8.46154V8.66667H21.75V8.46154H20.25ZM20.25 8.66667V17.0769H21.75V8.66667H20.25ZM3 9.41667H21V7.91667H3V9.41667ZM7.8 21.25C6.94723 21.25 6.35391 21.2494 5.89224 21.2107C5.43989 21.1728 5.18126 21.1023 4.9854 20.9999L4.29066 22.3293C4.73653 22.5624 5.21881 22.6595 5.76698 22.7055C6.30581 22.7506 6.97261 22.75 7.8 22.75V21.25ZM2.25 17.0769C2.25 17.9265 2.24945 18.6076 2.29324 19.1574C2.33769 19.7154 2.43137 20.2029 2.6553 20.6537L3.99866 19.9863C3.89561 19.7788 3.8258 19.5065 3.7885 19.0383C3.75055 18.5619 3.75 17.9506 3.75 17.0769H2.25ZM4.9854 20.9999C4.56349 20.7794 4.21697 20.4257 3.99866 19.9863L2.6553 20.6537C3.01223 21.3721 3.58359 21.9598 4.29066 22.3293L4.9854 20.9999ZM16.2 22.75C17.0274 22.75 17.6942 22.7506 18.233 22.7055C18.7812 22.6595 19.2635 22.5624 19.7093 22.3293L19.0146 20.9999C18.8187 21.1023 18.5601 21.1728 18.1078 21.2107C17.6461 21.2494 17.0528 21.25 16.2 21.25V22.75ZM20.25 17.0769C20.25 17.9506 20.2494 18.5619 20.2115 19.0383C20.1742 19.5065 20.1044 19.7788 20.0013 19.9863L21.3447 20.6537C21.5686 20.2029 21.6623 19.7154 21.7068 19.1574C21.7506 18.6076 21.75 17.9265 21.75 17.0769H20.25ZM19.7093 22.3293C20.4164 21.9598 20.9878 21.3721 21.3447 20.6537L20.0013 19.9863C19.783 20.4257 19.4365 20.7794 19.0146 20.9999L19.7093 22.3293ZM16.2 4.28846C17.0528 4.28846 17.6461 4.28907 18.1078 4.32776C18.5601 4.36567 18.8187 4.43618 19.0146 4.53853L19.7093 3.20912C19.2635 2.97611 18.7812 2.87894 18.233 2.833C17.6942 2.78785 17.0274 2.78846 16.2 2.78846V4.28846ZM21.75 8.46154C21.75 7.61199 21.7506 6.93084 21.7068 6.38106C21.6623 5.82307 21.5686 5.33556 21.3447 4.88481L20.0013 5.55217C20.1044 5.75961 20.1742 6.032 20.2115 6.50018C20.2494 6.97657 20.25 7.58785 20.25 8.46154H21.75ZM19.0146 4.53853C19.4365 4.75902 19.783 5.11274 20.0013 5.55217L21.3447 4.88481C20.9878 4.16632 20.4164 3.57863 19.7093 3.20912L19.0146 4.53853ZM7.8 2.78846C6.97261 2.78846 6.30581 2.78785 5.76698 2.833C5.21881 2.87894 4.73653 2.97611 4.29066 3.20912L4.9854 4.53853C5.18126 4.43618 5.43989 4.36567 5.89224 4.32776C6.35391 4.28907 6.94723 4.28846 7.8 4.28846V2.78846ZM3.75 8.46154C3.75 7.58785 3.75055 6.97657 3.7885 6.50018C3.8258 6.032 3.89561 5.75961 3.99866 5.55217L2.6553 4.88481C2.43137 5.33556 2.33769 5.82307 2.29324 6.38106C2.24945 6.93084 2.25 7.61199 2.25 8.46154H3.75ZM4.29066 3.20912C3.58359 3.57863 3.01223 4.16632 2.6553 4.88481L3.99866 5.55217C4.21697 5.11274 4.56349 4.75902 4.9854 4.53853L4.29066 3.20912ZM7.25 2V5.07692H8.75V2H7.25ZM15.25 2V5.07692H16.75V2H15.25Z" fill="#282930"/>
<path opacity="0.4" d="M8 12.4873C7.44772 12.4873 7 12.935 7 13.4873C7 14.0396 7.44772 14.4873 8 14.4873V12.4873ZM8.01 14.4873C8.56228 14.4873 9.01 14.0396 9.01 13.4873C9.01 12.935 8.56228 12.4873 8.01 12.4873V14.4873ZM8 16.077C7.44772 16.077 7 16.5248 7 17.077C7 17.6293 7.44772 18.077 8 18.077V16.077ZM8.01 18.077C8.56228 18.077 9.01 17.6293 9.01 17.077C9.01 16.5248 8.56228 16.077 8.01 16.077V18.077ZM12 12.4873C11.4477 12.4873 11 12.935 11 13.4873C11 14.0396 11.4477 14.4873 12 14.4873V12.4873ZM12.01 14.4873C12.5623 14.4873 13.01 14.0396 13.01 13.4873C13.01 12.935 12.5623 12.4873 12.01 12.4873V14.4873ZM12 16.077C11.4477 16.077 11 16.5248 11 17.077C11 17.6293 11.4477 18.077 12 18.077V16.077ZM12.01 18.077C12.5623 18.077 13.01 17.6293 13.01 17.077C13.01 16.5248 12.5623 16.077 12.01 16.077V18.077ZM16 12.4873C15.4477 12.4873 15 12.935 15 13.4873C15 14.0396 15.4477 14.4873 16 14.4873V12.4873ZM16.01 14.4873C16.5623 14.4873 17.01 14.0396 17.01 13.4873C17.01 12.935 16.5623 12.4873 16.01 12.4873V14.4873ZM16 16.077C15.4477 16.077 15 16.5248 15 17.077C15 17.6293 15.4477 18.077 16 18.077V16.077ZM16.01 18.077C16.5623 18.077 17.01 17.6293 17.01 17.077C17.01 16.5248 16.5623 16.077 16.01 16.077V18.077ZM8 14.4873H8.01V12.4873H8V14.4873ZM8 18.077H8.01V16.077H8V18.077ZM12 14.4873H12.01V12.4873H12V14.4873ZM12 18.077H12.01V16.077H12V18.077ZM16 14.4873H16.01V12.4873H16V14.4873ZM16 18.077H16.01V16.077H16V18.077Z" fill="#282930"/>
</svg>
