<svg width="24" height="24" viewBox="0 0 24 24" fill="none" xmlns="http://www.w3.org/2000/svg">
<path fill-rule="evenodd" clip-rule="evenodd" d="M11.2308 2.75C6.54697 2.75 2.75 6.54697 2.75 11.2308C2.75 15.9146 6.54697 19.7115 11.2308 19.7115C13.5729 19.7115 15.692 18.7631 17.2276 17.2276C18.7631 15.692 19.7115 13.5729 19.7115 11.2308C19.7115 6.54697 15.9146 2.75 11.2308 2.75ZM1.25 11.2308C1.25 5.71854 5.71854 1.25 11.2308 1.25C16.743 1.25 21.2115 5.71854 21.2115 11.2308C21.2115 13.7166 20.3019 15.9912 18.7987 17.7381L22.5303 21.4697C22.8232 21.7626 22.8232 22.2374 22.5303 22.5303C22.2374 22.8232 21.7626 22.8232 21.4697 22.5303L17.7381 18.7987C15.9912 20.3019 13.7166 21.2115 11.2308 21.2115C5.71854 21.2115 1.25 16.743 1.25 11.2308Z" fill="#282930"/>
</svg>
