<svg width="24" height="24" viewBox="0 0 24 24" fill="none" xmlns="http://www.w3.org/2000/svg">
<path fill-rule="evenodd" clip-rule="evenodd" d="M6.5 2.75C5.25736 2.75 4.25 3.75736 4.25 5V19C4.25 20.2426 5.25736 21.25 6.5 21.25H13.5C14.6141 21.25 15.5404 20.4395 15.7189 19.3759C15.7874 18.9674 16.1741 18.6918 16.5826 18.7603C16.9911 18.8289 17.2667 19.2156 17.1982 19.6241C16.9005 21.3982 15.3589 22.75 13.5 22.75H6.5C4.42893 22.75 2.75 21.0711 2.75 19V5C2.75 2.92893 4.42893 1.25 6.5 1.25H13.5C15.3589 1.25 16.9005 2.60177 17.1982 4.37591C17.2667 4.78441 16.9911 5.17113 16.5826 5.23966C16.1741 5.3082 15.7874 5.0326 15.7189 4.62409C15.5404 3.56052 14.6141 2.75 13.5 2.75H6.5ZM16.0525 7.46967C16.3454 7.17678 16.8203 7.17678 17.1132 7.46967L20.9718 11.3282C21.1571 11.5136 21.25 11.758 21.25 12C21.25 12.242 21.1571 12.4864 20.9717 12.6718L17.1132 16.5303C16.8203 16.8232 16.3454 16.8232 16.0525 16.5303C15.7596 16.2374 15.7596 15.7626 16.0525 15.4697L18.7722 12.75H7.58284C7.16863 12.75 6.83284 12.4142 6.83284 12C6.83284 11.5858 7.16863 11.25 7.58284 11.25H18.7722L16.0525 8.53033C15.7596 8.23744 15.7596 7.76256 16.0525 7.46967Z" fill="#282930"/>
</svg>
