<svg width="24" height="24" viewBox="0 0 24 24" fill="none" xmlns="http://www.w3.org/2000/svg">
<path fill-rule="evenodd" clip-rule="evenodd" d="M11.9996 2.75C10.2309 2.75 8.81275 4.16397 8.81275 5.88889C8.81275 7.61381 10.2309 9.02778 11.9996 9.02778C13.7683 9.02778 15.1864 7.61381 15.1864 5.88889C15.1864 4.16397 13.7683 2.75 11.9996 2.75ZM7.31275 5.88889C7.31275 3.31826 9.41981 1.25 11.9996 1.25C14.5794 1.25 16.6864 3.31826 16.6864 5.88889C16.6864 8.45951 14.5794 10.5278 11.9996 10.5278C9.41981 10.5278 7.31275 8.45951 7.31275 5.88889ZM14.199 13.8581C12.6998 13.7504 11.305 13.7505 9.80266 13.8587C7.50169 14.0242 5.68583 15.8763 5.34511 18.2082L5.27134 18.7131C5.10918 19.8229 5.89044 20.8473 7.00664 20.9649C10.5893 21.3424 13.4231 21.3467 16.9986 20.9679C18.1118 20.85 18.8907 19.8275 18.7287 18.719L18.6537 18.2059C18.3131 15.8749 16.4986 14.0232 14.199 13.8581ZM9.69499 12.3625C11.2688 12.2493 12.7355 12.2491 14.3065 12.3619C17.3888 12.5833 19.7077 15.0444 20.138 17.9891L20.2129 18.5021C20.4953 20.4343 19.1358 22.2499 17.1566 22.4596C13.4746 22.8496 10.5351 22.845 6.84946 22.4566C4.86847 22.2479 3.5043 20.4317 3.7871 18.4962L3.86087 17.9913C4.29132 15.0453 6.6119 12.5844 9.69499 12.3625Z" fill="#282930"/>
</svg>
